<svg xmlns="http://www.w3.org/2000/svg" viewBox="0 0 78.91 97.53"><defs><style>.cls-1,.cls-2{fill:none;stroke:#f6b42c;}.cls-1{stroke-linecap:round;stroke-linejoin:round;stroke-width:2.23px;}.cls-2{stroke-miterlimit:10;stroke-width:4.59px;}.cls-3{fill:#f6b42c;}</style></defs><g id="圖層_2" data-name="圖層 2"><g id="圖層_1-2" data-name="圖層 1"><polyline class="cls-1" points="21.26 96.41 57.65 96.41 48.89 87.23"/><path class="cls-2" d="M58.18,72.85,41.41,64.09a4,4,0,0,0-3.74,0L21,73a4,4,0,0,1-5.84-4.22l3.14-18.65a4,4,0,0,0-1.16-3.55L3.52,33.36A4,4,0,0,1,5.73,26.5l18.71-2.77a4,4,0,0,0,3-2.2l8.32-17a4,4,0,0,1,7.21,0L51.4,21.46a4,4,0,0,0,3,2.19l18.73,2.67a4,4,0,0,1,2.24,6.85L61.89,46.41A4,4,0,0,0,60.75,50L64,68.6A4,4,0,0,1,58.18,72.85Z"/><path class="cls-3" d="M33.31,38.74c0,2.84-1.16,5.14-2.58,5.14s-2.59-2.3-2.59-5.14,1.16-5.14,2.59-5.14S33.31,35.9,33.31,38.74Z"/><path class="cls-3" d="M52.08,38.74c0,2.84-1.15,5.14-2.58,5.14s-2.59-2.3-2.59-5.14,1.16-5.14,2.59-5.14S52.08,35.9,52.08,38.74Z"/></g></g></svg>