<svg xmlns="http://www.w3.org/2000/svg" viewBox="0 0 43.19 43.18"><g id="圖層_2" data-name="圖層 2"><g id="圖層_1-2" data-name="圖層 1"><path d="M33.14,12.65a2.6,2.6,0,1,0-2.61-2.59A2.59,2.59,0,0,0,33.14,12.65Z" style="fill:#fff"/><path d="M1.14,35.73a10.32,10.32,0,0,0,2.5,3.82,10.48,10.48,0,0,0,3.84,2.5,15.77,15.77,0,0,0,5.23,1c2.29.11,3,.13,8.89.13s6.61,0,8.9-.13a15.94,15.94,0,0,0,5.24-1,10.53,10.53,0,0,0,3.83-2.5,10.84,10.84,0,0,0,2.5-3.82,16.15,16.15,0,0,0,1-5.25c.1-2.29.13-3,.13-8.89s0-6.61-.13-8.9a16.15,16.15,0,0,0-1-5.25,11,11,0,0,0-2.5-3.83,10.44,10.44,0,0,0-3.83-2.47,15.88,15.88,0,0,0-5.24-1C28.21,0,27.48,0,21.6,0S15,0,12.71.12a15.71,15.71,0,0,0-5.23,1A10.39,10.39,0,0,0,3.64,3.61a10.43,10.43,0,0,0-2.5,3.83,15.89,15.89,0,0,0-1,5.25C0,15,0,15.72,0,21.59s0,6.6.15,8.89A15.89,15.89,0,0,0,1.14,35.73ZM4,12.87a11.75,11.75,0,0,1,.74-4A6.46,6.46,0,0,1,6.38,6.37,7,7,0,0,1,8.86,4.74a13,13,0,0,1,4-.74c2.29-.09,3-.12,8.73-.12s6.46,0,8.72.12a13,13,0,0,1,4,.74,7.09,7.09,0,0,1,2.48,1.63,6.24,6.24,0,0,1,1.61,2.48,11.38,11.38,0,0,1,.76,4c.1,2.27.13,3,.13,8.72s0,6.44-.13,8.71a11.38,11.38,0,0,1-.76,4,6.38,6.38,0,0,1-1.61,2.48,6.9,6.9,0,0,1-2.48,1.61,12,12,0,0,1-4,.76c-2.26.1-2.94.12-8.72.12s-6.44,0-8.73-.12a12,12,0,0,1-4-.76A6.82,6.82,0,0,1,6.38,36.8a6.61,6.61,0,0,1-1.61-2.48,11.75,11.75,0,0,1-.74-4c-.12-2.27-.12-2.94-.12-8.71S3.91,15.14,4,12.87Z" style="fill:#fff"/><path d="M21.6,32.67A11.09,11.09,0,1,0,10.5,21.59,11.07,11.07,0,0,0,21.6,32.67Zm0-18.29a7.2,7.2,0,1,1-7.2,7.21A7.21,7.21,0,0,1,21.6,14.38Z" style="fill:#fff"/></g></g></svg>