<svg xmlns="http://www.w3.org/2000/svg" viewBox="0 0 130.74 115.36"><g id="圖層_2" data-name="圖層 2"><g id="圖層_1-2" data-name="圖層 1"><path d="M35.5,74a2.22,2.22,0,0,0,.51-.06L84.5,64.08a2.63,2.63,0,0,0,1.81-1.38c5.07-10.15,4.43-23.19-1.86-37.7A92.76,92.76,0,0,0,73.52,6.25a2.6,2.6,0,0,0-2.32-1L39.83,8.74A2.6,2.6,0,0,0,37.61,12C44.25,36.33,33.15,70.19,33,70.53a2.58,2.58,0,0,0,.51,2.54A2.62,2.62,0,0,0,35.5,74Zm24-44.19a93.18,93.18,0,0,0-4.84-17.44l5.81-.64s0,0,0,0c.2.26,19.58,25.55,7.08,50.48L56,64.55C60.6,54.94,61.83,43.06,59.52,29.76ZM82.19,59.25l-8.34,1.69c8.83-22-2.76-42.84-7.46-49.91l3.89-.43C74.25,16.11,90.48,40.45,82.19,59.25ZM43.34,13.58l6-.67c2.8,6.91,12.23,33.58,0,53l-10.1,2C42,58.25,47.74,33.89,43.34,13.58Z" style="fill:#2f599c"/><path d="M128.14,60.38c-11.07,0-15.68,8.61-16.95,14.72H2.6A2.59,2.59,0,0,0,.12,78.46c.46,1.5,11.57,36.67,35.71,36.67l53.34.23h0a2.56,2.56,0,0,0,1.3-.35c.93-.54,22.81-13.48,25.52-37,0,0,0,0,0,0a.06.06,0,0,0,0,0c0-.5,1.18-12.33,12.13-12.33a2.6,2.6,0,1,0,0-5.2ZM88.45,110.16l-52.61-.22c-8.38,0-15.06-5.56-20-12.11H102A58.45,58.45,0,0,1,88.45,110.16Zm17.09-17.53H12.31a83,83,0,0,1-6-12.33h104.1A39,39,0,0,1,105.54,92.63Z" style="fill:#2f599c"/><path d="M97.89,6.29a.59.59,0,0,1,.16.51L97.6,9.45a.58.58,0,0,0,.84.6l2.37-1.26a.64.64,0,0,1,.54,0L103.73,10a.57.57,0,0,0,.83-.61l-.46-2.65a.58.58,0,0,1,.16-.5l1.92-1.89a.57.57,0,0,0-.32-1L103.2,3a.56.56,0,0,1-.43-.31L101.57.32a.56.56,0,0,0-1,0L99.36,2.74a.56.56,0,0,1-.43.31l-2.66.39a.58.58,0,0,0-.32,1Z" style="fill:#2f599c"/><path d="M110,31.22a1,1,0,0,1,.28.87l-.77,4.54a1,1,0,0,0,1.42,1L115,35.5a1,1,0,0,1,.91,0L120,37.63a1,1,0,0,0,1.42-1l-.79-4.53a1,1,0,0,1,.27-.87L124.14,28a1,1,0,0,0-.54-1.66L119,25.66a1,1,0,0,1-.74-.53l-2-4.12a1,1,0,0,0-1.75,0l-2,4.13a1,1,0,0,1-.74.54l-4.55.67a1,1,0,0,0-.54,1.67Z" style="fill:#2f599c"/></g></g></svg>