<svg xmlns="http://www.w3.org/2000/svg" viewBox="0 0 78.91 121.24"><defs><style>.cls-1{fill:#f6b42c;}.cls-2{fill:#fff;}</style></defs><g id="圖層_2" data-name="圖層 2"><g id="圖層_1-2" data-name="圖層 1"><path class="cls-1" d="M49.7,86.46A1.12,1.12,0,1,0,48.08,88l7,7.3H21.26a1.12,1.12,0,1,0,0,2.23H57.65a1.12,1.12,0,0,0,.81-1.89Z"/><path class="cls-1" d="M77,34.81a6.31,6.31,0,0,0-3.53-10.76L54.76,21.38a1.72,1.72,0,0,1-1.3-.94L45,3.5A6.27,6.27,0,0,0,39.39,0h0a6.29,6.29,0,0,0-5.65,3.53l-8.32,17a1.72,1.72,0,0,1-1.3.94L5.39,24.23A6.32,6.32,0,0,0,1.92,35L15.5,48.17a1.73,1.73,0,0,1,.5,1.52L12.85,68.35a6.34,6.34,0,0,0,6.22,7.37A6.39,6.39,0,0,0,22,75l16.72-8.85a1.68,1.68,0,0,1,1.6,0l16.76,8.75a6.32,6.32,0,0,0,9.15-6.68L63,49.57a1.68,1.68,0,0,1,.49-1.52ZM58.48,50.36,61.73,69a1.72,1.72,0,0,1-2.49,1.82L42.48,62.05a6.33,6.33,0,0,0-5.88,0L19.88,70.92a1.72,1.72,0,0,1-2.5-1.81l3.15-18.65a6.29,6.29,0,0,0-1.83-5.58L5.12,31.71a1.72,1.72,0,0,1,1-2.94L24.77,26a6.3,6.3,0,0,0,4.75-3.46l8.33-17a1.58,1.58,0,0,1,1.54-1,1.69,1.69,0,0,1,1.54,1l8.42,16.94a6.31,6.31,0,0,0,4.76,3.44L72.83,28.6a1.66,1.66,0,0,1,1.39,1.16,1.68,1.68,0,0,1-.43,1.77L60.28,44.77A6.33,6.33,0,0,0,58.48,50.36Z"/><path class="cls-1" d="M30.73,33.6c-1.43,0-2.59,2.3-2.59,5.14s1.16,5.14,2.59,5.14,2.58-2.3,2.58-5.14S32.15,33.6,30.73,33.6Z"/><path class="cls-1" d="M49.5,33.6c-1.43,0-2.59,2.3-2.59,5.14s1.16,5.14,2.59,5.14,2.58-2.3,2.58-5.14S50.93,33.6,49.5,33.6Z"/><path class="cls-2" d="M22.24,120c-1.3,0-2.42-.1-3.35-.21a10.79,10.79,0,0,1-2.45-.56c-.05,0-.06-.06,0-.1a3.91,3.91,0,0,0,1-1.85.11.11,0,0,1,.12-.1h3.36a.75.75,0,0,0,.53-.22.73.73,0,0,0,.22-.52v-3.58a.75.75,0,0,0-.22-.53.74.74,0,0,0-.53-.21H17.69c-.07,0-.1,0-.1-.1v-.73a.09.09,0,0,1,.1-.1h4.2a.52.52,0,0,0,.38-.15.53.53,0,0,0,.16-.39.51.51,0,0,0-.16-.38.53.53,0,0,0-.38-.16h-10a.57.57,0,0,0-.39.16.54.54,0,0,0-.15.38.51.51,0,0,0,.54.54h4.39c.06,0,.08,0,.08.1V112c0,.07,0,.1-.08.1H13.2a.72.72,0,0,0-.53.21.74.74,0,0,0-.21.53v3.58a.72.72,0,0,0,.21.52.73.73,0,0,0,.53.22h2.86a.05.05,0,0,1,.05,0s0,0,0,0a3.1,3.1,0,0,1-.8,1.31.12.12,0,0,1-.15,0,5.34,5.34,0,0,1-1-.92.93.93,0,0,0-.39-.26.71.71,0,0,0-.2,0,.65.65,0,0,0-.27,0,.44.44,0,0,0-.27.29.49.49,0,0,0,0,.12.38.38,0,0,0,.08.25,5.93,5.93,0,0,0,1.09,1.14.05.05,0,0,1,0,0s0,0,0,0a10.81,10.81,0,0,1-2.46.78.39.39,0,0,0-.29.25.4.4,0,0,0,.05.38,1.15,1.15,0,0,0,.43.36,1,1,0,0,0,.34.06l.19,0A10.29,10.29,0,0,0,15.29,120a.22.22,0,0,1,.16,0,9.65,9.65,0,0,0,2.66.8,32,32,0,0,0,3.63.34h0a.71.71,0,0,0,.45-.16,1,1,0,0,0,.34-.44.51.51,0,0,0,0-.17.35.35,0,0,0-.05-.2A.34.34,0,0,0,22.24,120Zm-4.65-6.81c0-.06,0-.09.1-.09h2.66c.06,0,.1,0,.1.09v.9a.09.09,0,0,1-.1.1H17.69c-.07,0-.1,0-.1-.1Zm0,2.39v-.37c0-.07,0-.1.1-.1h2.66a.09.09,0,0,1,.1.1v.9c0,.06,0,.09-.1.09H17.66c-.07,0-.09,0-.09-.09S17.59,115.81,17.59,115.57Zm-1.25,0c0,.24,0,.42,0,.54a.1.1,0,0,1-.11.09H13.67a.08.08,0,0,1-.09-.09v-.9c0-.07,0-.1.09-.1h2.59c.06,0,.08,0,.08.1Zm0-1.48c0,.07,0,.1-.08.1H13.67c-.06,0-.09,0-.09-.1v-.9a.08.08,0,0,1,.09-.09h2.59c.06,0,.08,0,.08.09Z"/><path class="cls-2" d="M36.19,115.16,36,115a.45.45,0,0,0-.36,0H32.89s0,0,0,0,0,0,0,0l.34-.34a.34.34,0,0,0,.11-.25.49.49,0,0,0,0-.12.41.41,0,0,0-.3-.28l-.28,0a1.19,1.19,0,0,0-.84.37,11.59,11.59,0,0,1-4.51,2.62.36.36,0,0,0-.24.27.39.39,0,0,0,.07.36.88.88,0,0,0,.4.29.62.62,0,0,0,.23,0,.74.74,0,0,0,.25-.05c.46-.18.91-.37,1.35-.58a.19.19,0,0,1,.18,0,12.94,12.94,0,0,1,2.06,1.44s0,.08,0,.1A15.27,15.27,0,0,1,27,120.1a.37.37,0,0,0-.29.21.53.53,0,0,0-.05.2.45.45,0,0,0,.05.19.87.87,0,0,0,.33.38.65.65,0,0,0,.36.1h.11a19.63,19.63,0,0,0,2.81-.67,14.85,14.85,0,0,0,2.47-1,8.31,8.31,0,0,0,2.11-1.56,8.42,8.42,0,0,0,1.51-2.12.76.76,0,0,0,0-.21.41.41,0,0,0,0-.15A.47.47,0,0,0,36.19,115.16Zm-1.34.94a6.88,6.88,0,0,1-1.94,2,.12.12,0,0,1-.15,0,13.4,13.4,0,0,0-2.06-1.41s0,0,0,0a.09.09,0,0,1,0-.06c.25-.15.5-.31.75-.49a.34.34,0,0,1,.17,0h3.19a.05.05,0,0,1,0,0S34.87,116.08,34.85,116.1Z"/><path class="cls-2" d="M31.11,114.46a11.61,11.61,0,0,0,2-1.42,8.39,8.39,0,0,0,1.48-1.76.38.38,0,0,0,0-.34.43.43,0,0,0-.21-.28l-.23-.14a.4.4,0,0,0-.32,0H31s0,0,0,0a0,0,0,0,1,0,0,1.89,1.89,0,0,1,.2-.2.38.38,0,0,0,.11-.25.51.51,0,0,0,0-.13.37.37,0,0,0-.29-.26.8.8,0,0,0-.27,0,1.18,1.18,0,0,0-.85.39,10.79,10.79,0,0,1-3.74,2.27.34.34,0,0,0-.22.27.36.36,0,0,0,.09.34.89.89,0,0,0,.42.28.82.82,0,0,0,.49,0,11,11,0,0,0,1-.49.25.25,0,0,1,.17,0,10.4,10.4,0,0,1,1.85,1.21s0,.07,0,.1A15.45,15.45,0,0,1,26,115.22a.4.4,0,0,0-.27.24.29.29,0,0,0,0,.16.36.36,0,0,0,.06.2.82.82,0,0,0,.34.35.71.71,0,0,0,.31.08l.16,0a19.79,19.79,0,0,0,2.37-.73A16.3,16.3,0,0,0,31.11,114.46Zm-2-2.49s0,0,0,0a.09.09,0,0,1,0-.06,4.85,4.85,0,0,0,.5-.34.41.41,0,0,1,.18,0h3.19s.05,0,.05,0,0,0,0,0a8.18,8.18,0,0,1-1.87,1.63.11.11,0,0,1-.15,0A11.76,11.76,0,0,0,29.07,112Z"/><path class="cls-2" d="M40.36,110.67c.64.21,1.22.43,1.75.66a.45.45,0,0,0,.25.07l.16,0a.57.57,0,0,0,.33-.26.44.44,0,0,0,.07-.24.78.78,0,0,0,0-.14.44.44,0,0,0-.27-.29,17.65,17.65,0,0,0-1.74-.61.57.57,0,0,0-.18,0,.59.59,0,0,0-.22,0,.66.66,0,0,0-.33.27.36.36,0,0,0,0,.32A.42.42,0,0,0,40.36,110.67Z"/><path class="cls-2" d="M40.14,113.88l.19,0c1.15-.35,1.9-.58,2.25-.7a.5.5,0,0,0,.31-.24.54.54,0,0,0,.08-.37.37.37,0,0,0-.17-.29.4.4,0,0,0-.23-.08l-.11,0c-1.19.31-2.06.54-2.6.66a.42.42,0,0,0-.31.24.43.43,0,0,0,0,.21.58.58,0,0,0,0,.19.66.66,0,0,0,.33.33A.71.71,0,0,0,40.14,113.88Z"/><path class="cls-2" d="M50.44,113.23a6.49,6.49,0,0,1-1.65-.49,2.93,2.93,0,0,1-.93-.65,2.29,2.29,0,0,1-.44-.78.13.13,0,0,1,0-.06.06.06,0,0,1,.06,0h1.58a.05.05,0,0,1,0,0,0,0,0,0,1,0,0c-.1.16-.2.3-.28.41a.35.35,0,0,0,0,.31.32.32,0,0,0,.21.23.93.93,0,0,0,.23,0,.71.71,0,0,0,.2,0,.58.58,0,0,0,.36-.23,7.89,7.89,0,0,0,.73-1.13.28.28,0,0,0,0-.28.29.29,0,0,0-.21-.18l-.24-.06a.59.59,0,0,0-.32,0l0,0h-4a0,0,0,0,1,0,0,.06.06,0,0,1,0-.06,1.4,1.4,0,0,1,.1-.16.36.36,0,0,0,0-.36.37.37,0,0,0-.29-.21h-.11a.69.69,0,0,0-.34.09.75.75,0,0,0-.34.32,5.25,5.25,0,0,1-1.23,1.43.38.38,0,0,0-.13.3.35.35,0,0,0,.18.28.74.74,0,0,0,.43.14.65.65,0,0,0,.41-.15,6.25,6.25,0,0,0,.61-.65.22.22,0,0,1,.15-.08h1a.09.09,0,0,1,.07,0,.07.07,0,0,1,0,.06,2.18,2.18,0,0,1-.75,1.1,4,4,0,0,1-1.6.68.4.4,0,0,0-.32.29.43.43,0,0,0,0,.19.48.48,0,0,0,.07.26l0,.1a0,0,0,0,1,0,0s0,0,0,0H41.77a.73.73,0,0,0-.52.22.7.7,0,0,0-.22.52v3.69a.75.75,0,0,0,.74.74h6.9a.7.7,0,0,0,.52-.22.73.73,0,0,0,.22-.52v-4.26c0-.06,0-.09.08-.08l.34.09H50a.77.77,0,0,0,.32-.07,1.06,1.06,0,0,0,.36-.34.49.49,0,0,0,.05-.2.78.78,0,0,0,0-.14A.33.33,0,0,0,50.44,113.23Zm-2.23,5.09c0,.07,0,.1-.1.1H42.28c-.06,0-.09,0-.09-.1v-.55c0-.07,0-.1.09-.1h5.83c.07,0,.1,0,.1.1Zm0-1.48c0,.07,0,.1-.1.1H42.28c-.06,0-.09,0-.09-.1v-.54c0-.07,0-.1.09-.1h5.83c.07,0,.1,0,.1.1Zm0-1.44c0,.06,0,.08-.1.08H42.28c-.06,0-.09,0-.09-.08v-.54a.08.08,0,0,1,.09-.09h5.83c.07,0,.1,0,.1.09Zm.9-1.4h-5s0,0,0,0a4.33,4.33,0,0,0,2.72-1.58.05.05,0,0,1,.05,0,.06.06,0,0,1,0,0A3.86,3.86,0,0,0,49.11,114h0A0,0,0,0,1,49.11,114Z"/><path class="cls-2" d="M50.2,120.41c-.77-.32-1.65-.66-2.62-1a1.28,1.28,0,0,0-.42-.07,1.16,1.16,0,0,0-.61.18.26.26,0,0,0-.14.23.28.28,0,0,0,.19.28c.82.3,1.56.61,2.23.92a1.85,1.85,0,0,0,.74.17,1.62,1.62,0,0,0,.61-.12h0a.28.28,0,0,0,.21-.29A.3.3,0,0,0,50.2,120.41Z"/><path class="cls-2" d="M43.67,119.45a1.12,1.12,0,0,0-.51-.11,1.58,1.58,0,0,0-.58.12,15,15,0,0,1-2.57.82.29.29,0,0,0-.25.22.38.38,0,0,0,0,.1.3.3,0,0,0,.1.23,1.07,1.07,0,0,0,.49.29,1.24,1.24,0,0,0,.27,0,1.27,1.27,0,0,0,.28,0A18.06,18.06,0,0,0,43.7,120a.27.27,0,0,0,.15-.28A.3.3,0,0,0,43.67,119.45Z"/><path class="cls-2" d="M54.47,110.82h2.74a.49.49,0,0,0,.33-.13.47.47,0,0,0-.33-.8H54.47a.46.46,0,0,0-.34.14.46.46,0,0,0,0,.66A.49.49,0,0,0,54.47,110.82Z"/><path class="cls-2" d="M57.24,115H54.4a.45.45,0,0,0-.32.14.45.45,0,0,0-.14.33.49.49,0,0,0,.14.34.44.44,0,0,0,.32.13h2.84a.48.48,0,0,0,.33-.13.48.48,0,0,0,.13-.34.44.44,0,0,0-.13-.33A.49.49,0,0,0,57.24,115Z"/><path class="cls-2" d="M65.1,118.53a.16.16,0,0,0-.2-.07.18.18,0,0,0-.15.17c0,.38,0,.69-.08.94s-.07.37-.11.36-.31-.32-.42-.84a13.35,13.35,0,0,1-.22-2c0-.84-.06-1.81-.07-2.89,0-.27,0-.54,0-.82l0-2.57a.73.73,0,0,0-.21-.52.69.69,0,0,0-.51-.21H58.86a.57.57,0,0,0-.41.17.56.56,0,0,0-.17.4.54.54,0,0,0,.17.4.53.53,0,0,0,.41.17h.76a.09.09,0,0,1,.1.1v3c0,.07,0,.1-.1.1h-.93a.5.5,0,0,0-.38.17.54.54,0,0,0-.17.39.54.54,0,0,0,.17.4.49.49,0,0,0,.38.16h.88c.07,0,.1,0,.09.1a7.55,7.55,0,0,1-1.88,4.7h0s0,0,0,0v-2.72a.73.73,0,0,0-.22-.53.72.72,0,0,0-.52-.21H54.67a.72.72,0,0,0-.52.21.69.69,0,0,0-.22.53v3.06a.51.51,0,0,0,.51.51h0a.48.48,0,0,0,.34-.14.5.5,0,0,0,.14-.35s0,0,.06,0h2.67s0,0,0,0a1.31,1.31,0,0,1,.23.2.86.86,0,0,0,.53.21h0a.63.63,0,0,0,.48-.21,8.75,8.75,0,0,0,1.83-5.17c0-.07,0-.1.1-.1h.84a.52.52,0,0,0,.4-.16.54.54,0,0,0,.17-.4.54.54,0,0,0-.17-.39.53.53,0,0,0-.4-.17H61a.09.09,0,0,1-.1-.1v-3a.09.09,0,0,1,.1-.1h1.61c.06,0,.09,0,.09.1v1.87c0,.62,0,1.21,0,1.78s0,1.1,0,1.61.06,1,.1,1.43.1.85.17,1.22a6.25,6.25,0,0,0,.24,1,2.4,2.4,0,0,0,.35.68,1.07,1.07,0,0,0,.46.35,1.06,1.06,0,0,0,.38.07.7.7,0,0,0,.49-.21,2.91,2.91,0,0,0,.5-1.47.76.76,0,0,0,0-.15A1.51,1.51,0,0,0,65.1,118.53Zm-8.41,1c0,.06,0,.1-.09.1H55s-.08,0-.08-.1v-1.66c0-.07,0-.1.08-.1H56.6c.06,0,.09,0,.09.1Z"/><path class="cls-2" d="M58,112.39a.44.44,0,0,0,.14-.34.42.42,0,0,0-.14-.33.45.45,0,0,0-.33-.14H53.83a.46.46,0,0,0-.34.14.45.45,0,0,0-.14.33.48.48,0,0,0,.14.34.43.43,0,0,0,.34.15h3.84A.43.43,0,0,0,58,112.39Z"/><path class="cls-2" d="M57.57,113.47a.45.45,0,0,0-.33-.14H54.4a.41.41,0,0,0-.32.14.45.45,0,0,0-.14.32.45.45,0,0,0,.14.33.45.45,0,0,0,.32.14h2.84a.49.49,0,0,0,.33-.14.44.44,0,0,0,.13-.33A.44.44,0,0,0,57.57,113.47Z"/></g></g></svg>