<svg xmlns="http://www.w3.org/2000/svg" viewBox="0 0 78.91 97.53"><defs><style>.cls-1{fill:#f6b42c;}</style></defs><g id="圖層_2" data-name="圖層 2"><g id="圖層_1-2" data-name="圖層 1"><path class="cls-1" d="M49.7,86.46A1.12,1.12,0,1,0,48.08,88l7,7.3H21.26a1.12,1.12,0,1,0,0,2.23H57.65a1.12,1.12,0,0,0,.81-1.89Z"/><path class="cls-1" d="M77,34.81a6.31,6.31,0,0,0-3.53-10.76L54.76,21.38a1.72,1.72,0,0,1-1.3-.94L45,3.5A6.27,6.27,0,0,0,39.39,0h0a6.29,6.29,0,0,0-5.65,3.53l-8.32,17a1.72,1.72,0,0,1-1.3.94L5.39,24.23A6.32,6.32,0,0,0,1.92,35L15.5,48.17a1.73,1.73,0,0,1,.5,1.52L12.85,68.35a6.34,6.34,0,0,0,6.22,7.37A6.39,6.39,0,0,0,22,75l16.72-8.85a1.68,1.68,0,0,1,1.6,0l16.76,8.75a6.32,6.32,0,0,0,9.15-6.68L63,49.57a1.68,1.68,0,0,1,.49-1.52ZM58.48,50.36,61.73,69a1.72,1.72,0,0,1-2.49,1.82L42.48,62.05a6.33,6.33,0,0,0-5.88,0L19.88,70.92a1.72,1.72,0,0,1-2.5-1.81l3.15-18.65a6.29,6.29,0,0,0-1.83-5.58L5.12,31.71a1.72,1.72,0,0,1,1-2.94L24.77,26a6.3,6.3,0,0,0,4.75-3.46l8.33-17a1.58,1.58,0,0,1,1.54-1,1.69,1.69,0,0,1,1.54,1l8.42,16.94a6.31,6.31,0,0,0,4.76,3.44L72.83,28.6a1.66,1.66,0,0,1,1.39,1.16,1.68,1.68,0,0,1-.43,1.77L60.28,44.77A6.33,6.33,0,0,0,58.48,50.36Z"/><path class="cls-1" d="M30.73,33.6c-1.43,0-2.59,2.3-2.59,5.14s1.16,5.14,2.59,5.14,2.58-2.3,2.58-5.14S32.15,33.6,30.73,33.6Z"/><path class="cls-1" d="M49.5,33.6c-1.43,0-2.59,2.3-2.59,5.14s1.16,5.14,2.59,5.14,2.58-2.3,2.58-5.14S50.93,33.6,49.5,33.6Z"/></g></g></svg>